#N canvas 401 25 1391 1034 12;
#X obj 865 224 *~;
#X obj 947 181 hsl 128 15 0 10 0 0 empty empty Gain -2 -8 0 10 #ffc7c6
#000000 #000000 0 1;
#X obj 866 346 *~;
#X obj 947 315 hsl 128 15 0 10 0 0 empty empty Output -2 -8 0 10 #ffc7c6
#000000 #000000 0 1;
#X obj 903 280 delwrite~ audio-buffer 5000;
#X obj 791 493 delread~ audio-buffer 0;
#X floatatom 791 453 5 0 0 0 - - - 0;
#X obj 794 430 hsl 128 15 0 5000 0 0 empty empty Time(Mil) -2 -8 0
10 #c6ffc7 #000000 #000000 0 1;
#X obj 791 582 *~;
#X obj 837 535 hsl 128 15 0 1 0 0 empty empty Delay\\\ Volume -2 -8
0 10 #ffc7c6 #000000 #000000 0 1;
#X obj 866 663 send~ feedback;
#X obj 846 632 *~;
#X obj 885 585 hsl 128 15 0 1 0 0 empty empty FeedbackAmount -2 -8
0 10 #c6ffc7 #000000 #000000 0 1;
#X obj 939 250 receive~ feedback-sig;
#X obj 1108 471 *~;
#X obj 1178 427 hsl 128 15 0 10 0 0 empty empty Gain -2 -8 0 10 #ffc7c6
#000000 #000000 0 1;
#X obj 1174 629 *~;
#X obj 1216 578 hsl 128 15 0 10 0 0 empty empty Output -2 -8 0 10 #ffc7c6
#000000 #000000 0 1;
#X obj 1108 579 *~;
#X floatatom 1127 544 5 0 0 0 - - - 0;
#X obj 1152 584 *~;
#X obj 1177 520 rev2~ 100 90 3000 20;
#X obj 865 180 adc~ 2;
#X obj 1108 427 adc~ 2;
#X obj 1168 180 adc~ 2;
#X obj 1169 265 *~;
#X obj 1233 199 hsl 128 15 0 1 0 0 empty empty Gain -2 -8 0 10 #ffc7c6
#000000 #000000 0 1;
#X obj 1289 244 r depth;
#X obj 1289 292 *~;
#X obj 1289 316 vd~;
#X text 571 39 This multi-effect is designed for an input device to
take given input and apply effects. Available are delay \, chorus and
reverb;
#X obj 590 173 cnv 15 100 60 empty empty empty 20 12 0 14 #e0e0e0 #404040
0;
#X text 572 101 //Canvas to be added //to apply all objects //to a
control surface;
#X obj 1289 268 *~ 300;
#X floatatom 944 204 5 0 0 0 - - - 0;
#X floatatom 1230 219 5 0 0 0 - - - 0;
#X floatatom 1175 447 5 0 0 0 - - - 0;
#X floatatom 1213 598 5 0 0 0 - - - 0;
#X floatatom 882 605 5 0 0 0 - - - 0;
#X floatatom 834 555 5 0 0 0 - - - 0;
#X floatatom 944 335 5 0 0 0 - - - 0;
#X msg 770 388 0;
#X msg 1113 397 0;
#X msg 1293 552 0;
#X msg 984 511 0;
#X msg 1059 563 0;
#X msg 1211 151 0;
#X msg 909 141 0;
#X obj 1011 395 tgl 15 0 empty empty Verb\\\ Bypass 17 7 0 10 #ff8300
#000000 #000000 0 1;
#X obj 1130 100 tgl 15 0 empty empty Chorus\\\ Bypass 17 7 0 10 #ff8300
#000000 #000000 0 1;
#X obj 618 493 tgl 15 0 empty empty Delay\\\ Bypass 17 7 0 10 #ff8300
#000000 #000000 0 1;
#X obj 747 166 tgl 15 0 empty empty Bypass 17 7 0 10 #ff8300 #000000
#000000 0 1;
#X obj 618 530 select 1;
#X obj 1011 430 select 1;
#X obj 1129 132 select 1;
#X obj 747 198 select 1;
#X text 732 247 Add a merge;
#X obj 225 529 +~;
#X obj 223 594 *~;
#X obj 272 376 vsl 15 128 0 1 0 0 empty empty Delay\\\ Level 0 -9 0
10 #ff0400 #000000 #000000 0 1;
#X floatatom 272 529 5 0 0 0 - - - 0;
#X obj 272 569 pow 2;
#X obj 96 529 +~;
#X obj 96 592 *~;
#X obj 143 376 vsl 15 128 0 1 0 0 empty empty Chorus\\\ Level 0 -9
0 10 #ff0400 #000000 #000000 0 1;
#X floatatom 143 529 5 0 0 0 - - - 0;
#X obj 143 569 pow 2;
#X obj 333 529 +~;
#X obj 333 592 *~;
#X obj 380 376 vsl 15 128 0 1 0 0 empty empty Verb\\\ Level 0 -9 0
10 #ff0400 #000000 #000000 0 1;
#X floatatom 380 529 5 0 0 0 - - - 0;
#X obj 380 529 pow 2;
#X obj 221 659 dac~;
#X text 1151 607 L;
#X text 1181 654 R;
#X connect 0 0 2 0;
#X connect 0 0 4 0;
#X connect 1 0 34 0;
#X connect 2 0 57 0;
#X connect 2 0 57 1;
#X connect 3 0 40 0;
#X connect 5 0 8 0;
#X connect 5 0 11 0;
#X connect 6 0 5 0;
#X connect 7 0 6 0;
#X connect 8 0 57 0;
#X connect 8 0 57 1;
#X connect 9 0 39 0;
#X connect 11 0 10 0;
#X connect 12 0 38 0;
#X connect 13 0 4 0;
#X connect 14 0 18 0;
#X connect 14 0 21 0;
#X connect 15 0 36 0;
#X connect 16 0 67 1;
#X connect 17 0 37 0;
#X connect 18 0 67 0;
#X connect 18 0 67 1;
#X connect 19 0 18 1;
#X connect 20 0 67 0;
#X connect 21 0 20 0;
#X connect 21 1 16 0;
#X connect 22 0 0 0;
#X connect 23 0 14 0;
#X connect 24 0 25 0;
#X connect 25 0 62 0;
#X connect 25 0 62 1;
#X connect 26 0 35 0;
#X connect 27 0 25 1;
#X connect 27 0 33 0;
#X connect 28 0 29 0;
#X connect 29 0 62 0;
#X connect 29 0 62 1;
#X connect 33 0 28 0;
#X connect 34 0 0 1;
#X connect 35 0 25 1;
#X connect 36 0 14 1;
#X connect 37 0 16 1;
#X connect 38 0 11 1;
#X connect 39 0 8 1;
#X connect 40 0 2 1;
#X connect 41 0 7 0;
#X connect 42 0 15 0;
#X connect 43 0 17 0;
#X connect 44 0 9 0;
#X connect 45 0 12 0;
#X connect 46 0 26 0;
#X connect 47 0 1 0;
#X connect 48 0 53 0;
#X connect 49 0 54 0;
#X connect 50 0 52 0;
#X connect 51 0 55 0;
#X connect 52 0 9 0;
#X connect 52 1 39 0;
#X connect 53 0 17 0;
#X connect 53 1 37 0;
#X connect 54 0 26 0;
#X connect 54 1 35 0;
#X connect 55 1 50 0;
#X connect 55 1 48 0;
#X connect 55 1 49 0;
#X connect 57 0 58 0;
#X connect 58 0 72 0;
#X connect 58 0 72 1;
#X connect 59 0 60 0;
#X connect 60 0 61 0;
#X connect 61 0 58 1;
#X connect 62 0 63 0;
#X connect 63 0 72 0;
#X connect 63 0 72 1;
#X connect 64 0 65 0;
#X connect 65 0 66 0;
#X connect 66 0 63 1;
#X connect 67 0 68 0;
#X connect 68 0 72 0;
#X connect 68 0 72 1;
#X connect 69 0 70 0;
#X connect 70 0 71 0;
#X connect 71 0 68 1;
